<svg version="1.1" id="Layer_1" xmlns="http://www.w3.org/2000/svg" x="0" y="0" viewBox="0 0 201.99 59.48" xml:space="preserve"><style>.st0{fill:#fdc305}.st1{fill:#f06351}.st3{fill:#111}</style><path class="st0" d="M59.88 23.99c-5.45-13.05-20.45-19.21-33.5-13.76S7.18 30.69 12.63 43.74c3.59 8.58 11.3 14.19 19.88 15.46-.58-2.09-1.16-4.4-1.69-6.86 1.5.99 3.09 1.81 4.77 2.56-.01 0-.01.01-.02.01 0 0 .12 2.16.28 4.57 1.77.03 3.56-.13 5.35-.48-.04-.16-.04-.4.01-.76.29-1.86 1.09-5.24 1.25-7.41a15.22 15.22 0 0 0 2.9-3.71v.04c-.02.14-.04.29-.05.43-.55 4.26-1.7 8.81-2.4 10.07-.24.44-.55.86-.83 1.15 1.37-.32 2.73-.76 4.07-1.32 13.03-5.45 19.19-20.45 13.73-33.5zm-1.47 3.79c-.43.43-1.35.72-1.49-.58s-.19-2.22-.19-2.22-1.93-3.42-2.65-3.47c-.72-.05-5.83 3.47-7.18 4.96-1.16 1.29-1.4 1.2-1.4 3.47 0 1.71.22 8.17.1 13.11 0 0-2.17.58-8.15 2.17-5.98 1.59-7.81 1.78-7.81 1.78l-1.01-5.83c-.01 0-.02 0-.04-.01-.01 0-.02 0-.03-.01-.01 0-.03 0-.05-.01l-2.57-13.19s-3.81-1.45-5.2-1.83c-1.4-.39-2.26-.67-4.05.63-1.78 1.3-1.73 3.86-1.73 3.86s.43.96.48 1.45c.05.48-1.2.43-2.02.43s-.92-1.45-.29-3.13c.63-1.69 1.93-3.71 1.93-3.71s1.2-2.26 2.07-2.89c0 0 .14-.34 1.25-.24 1.11.1 7.28.43 7.28.43l.05-2.27c6.69-.91 13.49-1.37 20.24-1.34-.01.61-.03 1.22-.06 1.83 0 0 4.39-2.02 8.14-1.98 0 0 .43-.05.77.39.34.43 2.41 2.99 2.65 3.37.24.39 1.2 1.73 1.83 3.04-.01.01-.44 1.36-.87 1.79z"/><path class="st1" d="M56.46 21.67c.47.6.89 1.13.99 1.29.24.39 1.2 1.73 1.83 3.04 0 0-.43 1.35-.87 1.78s-1.35.72-1.49-.58-.19-2.22-.19-2.22-1.93-3.42-2.65-3.47c-.72-.05-5.83 3.47-7.18 4.96-1.16 1.29-1.4 1.2-1.4 3.47 0 1.5.17 6.65.13 11.23 1.81.21 4.47.71 5.27 1.88 0 0-.29-7.18 7.81-3.42 0 0 .29-9.78 11.47-7.28-.02.01-5.68-6.95-13.72-10.68zm-10.53-2.32c.15-8.51-1.41-16.53-1.41-16.53s-.14-1.3-.87-.24c-.72 1.06-1.2 3.95-1.2 3.95-7.46-.43-12.81.34-12.81.34-.82-2.75-2.22-3.95-2.89-3.66-.67.29-.72 3.33-.72 3.33L25.7 20.7c6.68-.93 13.48-1.39 20.23-1.35z"/><path d="M45.35 47.12c.13-1.06.2-2.49.24-4.06 0 0-2.17.58-8.15 2.17-5.98 1.59-7.81 1.78-7.81 1.78l1.11 5.01c.02.11.05.22.07.33 1.5.99 3.09 1.81 4.77 2.56 4.37-2.16 6.87-4.13 6.87-4.13v.06c1.13-1.07 2.14-2.34 2.9-3.72z" fill="#e55645"/><path d="M32 16.22c-.05-.09 1.03.68 1.41.92.39.24.61.42.61.59 0 .17-.27.34-.63.34s-.92-.12-.96-.27c0 0 .6-.02.94-.02h.29s-1.4-1.03-1.66-1.56zm7.5.11s-1.05 1.28-1.09 1.34c-.04.06-.17.34.19.29.35-.05 1.12-.23 1.22-.28.11-.06.07-.2-.12-.18-.21.02-.68.05-.99.11l.84-1.27c.01 0 .03-.12-.05-.01zm-3.14 6.11s.81-.35 1.09-1.01.04-.92-.44-.98-1.35-.03-1.74.34c-.4.37-.34.73-.05.96.28.22.84.6 1.14.69z"/><path class="st1" d="M35.95 23.7s-.18.37-.46.6c-.24.19-.57.37-1.02.39-.64.03-1.06-.17-1.46-.45-.2-.14-.4-.26-.53-.44-.16-.18-.36-.25-.36-.25s.75 4.12 2.58 4.77c1.83.65 2.15-.75 2.21-1.14.05-.33 0-2.09-.82-3.24-.02-.31-.04-.11-.14-.24z"/><path d="M34.3 24.84h-.02c-1.3-.01-2.3-1.37-2.34-1.42-.05-.06-.03-.15.03-.2.06-.05.15-.03.2.03.01.01.96 1.3 2.11 1.31h.01c.59 0 1.14-.33 1.63-.99l.14-.19.1.21c0 .01.37.76.99.8.5.03 1.06-.41 1.62-1.28.04-.07.13-.09.2-.04.07.04.09.13.04.2-.64.98-1.27 1.45-1.88 1.41-.57-.04-.95-.5-1.12-.77-.5.61-1.08.93-1.71.93z"/><circle class="st0" cx="36.26" cy="34.55" r="3.75"/><path class="st3" d="M41.23 31.5l-3.13 1.31 1.15-5.64-7.5 9.76 3.13-1.31-1.15 5.64 7.5-9.76zm-7.39 3.83l4.13-5.41-.81 4.02 1.97-.82-4.13 5.4.81-4.02-1.97.83z"/><circle class="st3" cx="32.44" cy="32.74" r="1.12"/><circle class="st3" cx="38.96" cy="37.13" r=".79"/><circle class="st3" cx="39.92" cy="35.4" r=".35"/><path class="st1" d="M45.88 21.16s-2.55 2.25-5.08 5.21-5.31 4.89-5.31 4.89c-.22-.53-1.63-1.51-1.63-1.51s-3.14-2.15-5.2-3.84c-1.18-.97-2.36-2.18-3.14-3.02-.29-.02-1.07-.06-2.01-.11 4.71 7 12.02 8.84 12.02 8.84.87-.14 3.29-1.87 5.1-3.28 1.81-1.41 4.77-4.54 5.96-5.92.6-.69.95-1.43 1.14-1.98-1.13.39-1.85.72-1.85.72z"/><path class="st0" d="M65.22 3.5l-8.46 9.44-1.22-2L63.69 0zm-2.57 13.76l5.55-4.11-.79-3.74-5.4 4.82zm-2.73 32.11l6.13 3.18 3.01-2.34-6.69-2.75zM1.95 5.98l3.07-3.37 9.29 9-1.22 2.28zm5.43 10.3l-4.7-3.13-2.4 3.86 5.15 2.41zm6.53 36.27L9.36 55.9l2.81 3.58 4.01-4.02z"/><path class="st1" d="M25.93 27.97s-3.81-1.45-5.2-1.83c-1.4-.39-2.26-.67-4.05.63-1.78 1.3-1.73 3.86-1.73 3.86s.43.96.48 1.45c.05.48-1.2.43-2.02.43s-.92-1.45-.29-3.13c.63-1.69 1.93-3.71 1.93-3.71C9.59 28.5 0 35.06 0 35.06s2.94-.29 8.19.24 4.96 4.67 4.96 4.67 3.52-.96 5.64-1.11c2.12-.14 2.26 2.12 2.26 2.12l.53 3.86s.48-.63 2.65-2.36a6.075 6.075 0 0 1 4.39-1.3l-2.69-13.21z"/><path class="st3" d="M85.66 42.03c-.93-1.2-1.4-2.93-1.4-5.19v-7.51c0-2.31.46-4.06 1.38-5.24.92-1.18 2.51-1.77 4.75-1.77 2.14 0 3.65.52 4.54 1.57.89 1.04 1.33 2.54 1.33 4.49v1.76h-4.14V28.2c0-.62-.03-1.12-.09-1.5-.06-.38-.22-.69-.47-.94-.25-.25-.63-.38-1.15-.38-.78 0-1.28.25-1.5.75-.22.5-.34 1.23-.34 2.2v9.53c0 .98.13 1.72.39 2.2.26.48.74.72 1.45.72.72 0 1.19-.25 1.4-.74.21-.49.31-1.22.31-2.19v-2.04h4.14v1.73c0 2-.44 3.55-1.32 4.65-.88 1.1-2.4 1.64-4.56 1.64-2.21 0-3.79-.6-4.72-1.8zm16.25-19.45h4.74l4.04 20.97h-3.93l-.78-4.61h-3.31l-.8 4.61h-4.01l4.05-20.97zm3.65 13.72l-1.27-8.44-1.24 8.44h2.51zm8.16-10.56h-3.24v-3.16h10.72v3.16h-3.18v17.81h-4.3V25.74z"/><path d="M129.61 22.58h8.13v2.17h-5.2v6.94h4.22v2.07h-4.22v7.69h5.26v2.1h-8.18V22.58zm10.54 0h1.99l5.95 13.93V22.58h2.43v20.97h-1.86l-6.03-14.32v14.32h-2.48V22.58zm13.67 0h8.13v2.17h-5.2v6.94h4.22v2.07h-4.22v7.69H162v2.1h-8.18V22.58zm10.53 0h4.22c2.12 0 3.68.44 4.67 1.31.99.87 1.49 2.29 1.49 4.26 0 2.69-.86 4.32-2.59 4.89l2.98 10.51h-2.82l-2.74-9.84h-2.28v9.84h-2.92V22.58zm4.04 9.04c1.26 0 2.16-.25 2.7-.75s.82-1.41.82-2.72c0-.86-.1-1.54-.29-2.03-.19-.49-.53-.85-1.01-1.09-.48-.23-1.17-.35-2.04-.35h-1.3v6.94h1.12zm10.28 10.39c-.84-1.2-1.27-2.98-1.27-5.35v-7.02c0-1.62.17-2.96.5-4 .34-1.04.91-1.85 1.74-2.41.82-.56 1.95-.84 3.38-.84 1.93 0 3.33.49 4.18 1.47.85.98 1.28 2.53 1.28 4.63v.78h-2.74v-.65c0-1-.06-1.77-.18-2.32-.12-.54-.38-.95-.76-1.23-.39-.28-.96-.41-1.72-.41-.81 0-1.42.19-1.81.56-.4.37-.65.87-.76 1.49-.11.62-.17 1.45-.17 2.49v7.77c0 1.6.19 2.76.58 3.46.39.7 1.14 1.05 2.24 1.05 1.09 0 1.83-.38 2.24-1.14.41-.76.61-1.98.61-3.65v-1.45h-2.67v-2.07h5.31v10.38h-1.84l-.29-2.41c-.66 1.78-1.9 2.67-3.73 2.67-1.91 0-3.28-.6-4.12-1.8zm16.02-5.86l-4.53-13.56h2.72l3.21 10.12 3.16-10.12h2.74l-4.51 13.56v7.4h-2.8v-7.4z" fill="#444"/></svg>