<svg version="1.1" id="Layer_2" xmlns="http://www.w3.org/2000/svg" x="0" y="0" viewBox="0 0 33.32 37.61" xml:space="preserve"><style>.st1{fill:#f06351}</style><path d="M6.07 20.72l.05-2.27c6.67-.91 13.44-1.37 20.16-1.33a55.3 55.3 0 0 1-.06 1.82s2.92-1.35 6.04-1.81C29.9 10.81 23.8 6.31 16.65 6.31c-8.32 0-15.22 6.1-16.47 14.08 2.18.13 5.89.33 5.89.33zm21.17 3.51c-1.16 1.28-1.39 1.2-1.39 3.46 0 .91.03 4.9.04 9.17 4.48-2.99 7.44-8.09 7.44-13.88 0-1.05-.1-2.08-.28-3.08-1.83 1.06-4.83 3.24-5.81 4.33zM6.36 25.72s-3.79-1.44-5.18-1.82c-.43-.13-.81-.24-1.18-.29.23 6.05 3.67 11.27 8.68 14.01l-2.32-11.9z" fill="#fdc305"/><path class="st1" d="M26.29 17.12c.15-8.48-1.4-16.47-1.4-16.47s-.14-1.3-.86-.24-1.2 3.94-1.2 3.94c-7.44-.43-12.77.34-12.77.34C9.24 1.95 7.85.75 7.18 1.04c-.67.29-.72 3.31-.72 3.31l-.33 14.1c6.67-.91 13.44-1.37 20.16-1.33z"/><path d="M12.41 14c-.05-.09 1.02.68 1.41.92.38.24.61.42.61.59 0 .17-.26.34-.62.34s-.91-.12-.96-.26c0 0 .6-.02.94-.02h.29c-.01-.01-1.4-1.04-1.67-1.57zm7.48.11s-1.05 1.27-1.09 1.33c-.04.06-.17.34.19.29s1.11-.22 1.22-.28c.11-.06.07-.2-.12-.18-.2.02-.68.05-.98.11l.84-1.26c-.01.01.02-.11-.06-.01zm-3.14 6.09s.81-.35 1.09-1.01.04-.91-.44-.98c-.48-.07-1.34-.03-1.74.34-.4.37-.34.73-.05.95.29.23.85.61 1.14.7z"/><path class="st1" d="M16.35 21.45s-.18.37-.46.59c-.24.19-.57.36-1.02.39-.64.03-1.06-.17-1.45-.45-.2-.14-.4-.25-.53-.44-.16-.18-.36-.25-.36-.25s.75 4.1 2.57 4.75c1.82.65 2.14-.75 2.2-1.13.05-.33 0-2.08-.82-3.22-.02-.31-.03-.11-.13-.24z"/><path d="M14.71 22.59h-.02c-1.29-.01-2.29-1.36-2.33-1.42-.05-.06-.03-.15.03-.2.06-.05.15-.03.2.03.01.01.96 1.29 2.1 1.3h.01c.58 0 1.13-.33 1.63-.99l.14-.19.1.21c0 .01.37.76.99.79.5.03 1.05-.41 1.62-1.28.04-.07.13-.09.2-.04.07.04.09.13.04.2-.63.97-1.26 1.45-1.88 1.41-.56-.04-.94-.49-1.12-.76-.51.62-1.09.94-1.71.94z"/><path class="st1" d="M26.24 18.92s-2.54 2.24-5.06 5.19-5.29 4.88-5.29 4.88c-.22-.53-1.62-1.51-1.62-1.51s-3.13-2.14-5.18-3.82c-1.18-.97-2.35-2.17-3.13-3.01-.29-.02-1.07-.06-2.01-.11 4.69 6.97 11.97 8.8 11.97 8.8.86-.14 3.28-1.86 5.08-3.26 1.8-1.4 4.75-4.52 5.94-5.89.6-.69.94-1.42 1.14-1.97-1.12.38-1.84.7-1.84.7z"/></svg>