<?xml version="1.0" encoding="utf-8"?>
<!-- Generator: Adobe Illustrator 23.0.0, SVG Export Plug-In . SVG Version: 6.00 Build 0)  -->
<svg version="1.1" id="Layer_1" xmlns="http://www.w3.org/2000/svg" xmlns:xlink="http://www.w3.org/1999/xlink" x="0px" y="0px"
	 viewBox="0 0 100.5 18.09" style="enable-background:new 0 0 100.5 18.09;" xml:space="preserve">
<style type="text/css">
	.st0{fill:#111111;}
</style>
<g>
	<path class="st0" d="M1.22,16.58C0.41,15.57,0,14.12,0,12.22V5.88c0-1.94,0.4-3.4,1.21-4.4C2.02,0.5,3.4,0,5.36,0
		c1.87,0,3.19,0.44,3.97,1.32c0.78,0.88,1.17,2.13,1.17,3.76V6.6H6.64V4.84c0-0.68-0.07-1.2-0.22-1.56
		c-0.15-0.36-0.5-0.54-1.06-0.54s-0.93,0.19-1.1,0.58c-0.18,0.38-0.26,0.92-0.26,1.6v8.27c0,0.69,0.09,1.23,0.28,1.6
		c0.18,0.37,0.55,0.55,1.09,0.55c0.54,0,0.89-0.18,1.05-0.55c0.15-0.37,0.23-0.9,0.23-1.6v-1.85h3.86v1.52
		c0,1.65-0.39,2.93-1.17,3.85c-0.78,0.92-2.1,1.38-3.97,1.38C3.42,18.09,2.04,17.58,1.22,16.58z"/>
	<path class="st0" d="M15.2,0.24h4.5l3.33,17.59h-3.64l-0.6-3.71h-2.62l-0.62,3.71h-3.73L15.2,0.24z M18.41,11.79l-0.95-6.86
		l-0.95,6.86H18.41z"/>
	<path class="st0" d="M25.75,3.13h-2.69V0.24h9.33v2.89h-2.67v14.7h-3.97V3.13z"/>
	<path class="st0" d="M39.53,0.24h6.92v1.82h-4.43v5.82h3.59v1.74h-3.59v6.45h4.48v1.76h-6.97V0.24z"/>
	<path class="st0" d="M48.49,0.24h1.7l5.07,11.68V0.24h2.07v17.59h-1.59L50.6,5.82v12.01h-2.12V0.24z"/>
	<path class="st0" d="M59.81,0.24h6.92v1.82H62.3v5.82h3.59v1.74H62.3v6.45h4.48v1.76h-6.97V0.24z"/>
	<path class="st0" d="M68.77,0.24h3.59c1.81,0,3.14,0.36,3.98,1.1s1.27,1.92,1.27,3.57c0,2.26-0.74,3.62-2.21,4.1l2.54,8.82h-2.4
		L73.2,9.57h-1.94v8.25h-2.49V0.24z M72.21,7.82c1.07,0,1.84-0.21,2.3-0.63c0.46-0.42,0.7-1.18,0.7-2.28c0-0.72-0.08-1.29-0.24-1.7
		s-0.45-0.72-0.86-0.91C73.69,2.1,73.11,2,72.36,2h-1.1v5.82H72.21z"/>
	<path class="st0" d="M80.81,16.53c-0.72-1.01-1.08-2.5-1.08-4.48V6.17c0-1.36,0.14-2.48,0.43-3.35c0.29-0.88,0.78-1.55,1.48-2.02
		c0.7-0.47,1.66-0.71,2.88-0.71c1.65,0,2.83,0.41,3.56,1.24c0.73,0.82,1.09,2.12,1.09,3.89v0.65h-2.34V5.32
		c0-0.84-0.05-1.49-0.15-1.94c-0.1-0.46-0.32-0.8-0.65-1.03C85.69,2.11,85.21,2,84.56,2c-0.69,0-1.2,0.16-1.54,0.47
		c-0.34,0.31-0.55,0.73-0.65,1.25c-0.1,0.52-0.14,1.22-0.14,2.09v6.51c0,1.35,0.17,2.31,0.5,2.9c0.33,0.59,0.97,0.88,1.91,0.88
		c0.93,0,1.56-0.32,1.91-0.96c0.34-0.64,0.52-1.66,0.52-3.06v-1.22h-2.27V9.12h4.52v8.71h-1.56l-0.24-2.02
		c-0.56,1.49-1.62,2.24-3.17,2.24C82.7,18.04,81.53,17.54,80.81,16.53z"/>
	<path class="st0" d="M94.28,11.62L90.42,0.24h2.32l2.73,8.49l2.69-8.49h2.34l-3.84,11.38v6.21h-2.38V11.62z"/>
</g>
</svg>
