<svg xmlns="http://www.w3.org/2000/svg" viewBox="0 0 100.5 18.09"><path d="M1.22 16.58C.41 15.57 0 14.12 0 12.22V5.88c0-1.94.4-3.4 1.21-4.4C2.02.5 3.4 0 5.36 0c1.87 0 3.19.44 3.97 1.32.78.88 1.17 2.13 1.17 3.76V6.6H6.64V4.84c0-.68-.07-1.2-.22-1.56-.15-.36-.5-.54-1.06-.54s-.93.19-1.1.58c-.18.38-.26.92-.26 1.6v8.27c0 .69.09 1.23.28 1.6.18.37.55.55 1.09.55s.89-.18 1.05-.55c.15-.37.23-.9.23-1.6v-1.85h3.86v1.52c0 1.65-.39 2.93-1.17 3.85-.78.92-2.1 1.38-3.97 1.38-1.95 0-3.33-.51-4.15-1.51zM15.2.24h4.5l3.33 17.59h-3.64l-.6-3.71h-2.62l-.62 3.71h-3.73L15.2.24zm3.21 11.55l-.95-6.86-.95 6.86h1.9zm7.34-8.66h-2.69V.24h9.33v2.89h-2.67v14.7h-3.97V3.13zM39.53.24h6.92v1.82h-4.43v5.82h3.59v1.74h-3.59v6.45h4.48v1.76h-6.97V.24zm8.96 0h1.7l5.07 11.68V.24h2.07v17.59h-1.59L50.6 5.82v12.01h-2.12V.24zm11.32 0h6.92v1.82H62.3v5.82h3.59v1.74H62.3v6.45h4.48v1.76h-6.97V.24zm8.96 0h3.59c1.81 0 3.14.36 3.98 1.1s1.27 1.92 1.27 3.57c0 2.26-.74 3.62-2.21 4.1l2.54 8.82h-2.4L73.2 9.57h-1.94v8.25h-2.49V.24zm3.44 7.58c1.07 0 1.84-.21 2.3-.63.46-.42.7-1.18.7-2.28 0-.72-.08-1.29-.24-1.7s-.45-.72-.86-.91c-.42-.2-1-.3-1.75-.3h-1.1v5.82h.95zm8.6 8.71c-.72-1.01-1.08-2.5-1.08-4.48V6.17c0-1.36.14-2.48.43-3.35.29-.88.78-1.55 1.48-2.02S83.3.09 84.52.09c1.65 0 2.83.41 3.56 1.24.73.82 1.09 2.12 1.09 3.89v.65h-2.34v-.55c0-.84-.05-1.49-.15-1.94-.1-.46-.32-.8-.65-1.03-.34-.24-.82-.35-1.47-.35-.69 0-1.2.16-1.54.47-.34.31-.55.73-.65 1.25-.1.52-.14 1.22-.14 2.09v6.51c0 1.35.17 2.31.5 2.9.33.59.97.88 1.91.88.93 0 1.56-.32 1.91-.96.34-.64.52-1.66.52-3.06v-1.22H84.8V9.12h4.52v8.71h-1.56l-.24-2.02c-.56 1.49-1.62 2.24-3.17 2.24-1.65-.01-2.82-.51-3.54-1.52zm13.47-4.91L90.42.24h2.32l2.73 8.49L98.16.24h2.34l-3.84 11.38v6.21h-2.38v-6.21z" fill="#111"/></svg>