<svg version="1.1" id="Layer_2" xmlns="http://www.w3.org/2000/svg" x="0" y="0" viewBox="0 0 172.26 57.07" xml:space="preserve"><style>.st1{fill:#f06351}.st3{fill:#111}</style><path d="M59.62 21.74C54.2 8.75 39.26 2.61 26.27 8.04S7.14 28.4 12.57 41.4c3.57 8.55 11.25 14.12 19.79 15.4-.58-2.08-1.16-4.38-1.68-6.83 1.49.99 3.08 1.8 4.75 2.54-.01 0-.01.01-.02.01 0 0 .12 2.15.28 4.55a25.2 25.2 0 0 0 5.32-.48c-.04-.16-.04-.4.01-.76.29-1.85 1.09-5.21 1.24-7.38 1.12-1.06 2.13-2.32 2.89-3.7v.04c-.02.14-.04.29-.05.43-.55 4.25-1.7 8.78-2.39 10.03-.24.44-.54.85-.83 1.15 1.36-.32 2.72-.75 4.05-1.31 12.99-5.43 19.12-20.36 13.69-33.35zm-1.47 3.77c-.43.43-1.34.72-1.49-.58-.14-1.3-.19-2.21-.19-2.21s-1.92-3.41-2.64-3.45c-.72-.05-5.81 3.45-7.15 4.94-1.16 1.28-1.39 1.2-1.39 3.45 0 1.71.22 8.13.1 13.05 0 0-2.16.58-8.11 2.16-5.95 1.58-7.77 1.78-7.77 1.78l-1.01-5.81c-.01 0-.02 0-.04-.01-.01 0-.02 0-.03-.01-.01 0-.03 0-.05-.01L25.81 25.7s-3.79-1.44-5.18-1.82c-1.39-.38-2.26-.67-4.03.62-1.78 1.3-1.73 3.84-1.73 3.84s.43.96.48 1.44c.05.48-1.2.43-2.02.43s-.91-1.44-.29-3.12c.62-1.68 1.92-3.69 1.92-3.69s1.2-2.26 2.06-2.88c0 0 .14-.34 1.25-.24 1.1.1 7.25.43 7.25.43l.05-2.26c6.66-.91 13.43-1.37 20.16-1.33a55.3 55.3 0 0 1-.06 1.82s4.37-2.02 8.11-1.97c0 0 .43-.05.77.38s2.4 2.97 2.64 3.36c.24.38 1.2 1.73 1.82 3.02.01 0-.43 1.35-.86 1.78z" fill="#fdc305"/><path class="st1" d="M56.21 19.43c.47.6.88 1.12.98 1.28.24.38 1.2 1.73 1.82 3.02 0 0-.43 1.34-.86 1.78-.43.43-1.34.72-1.49-.58-.14-1.3-.19-2.21-.19-2.21s-1.92-3.41-2.64-3.45c-.72-.05-5.81 3.45-7.15 4.94-1.16 1.28-1.39 1.2-1.39 3.45 0 1.5.17 6.62.13 11.18 1.8.21 4.45.71 5.25 1.87 0 0-.29-7.15 7.77-3.41 0 0 .29-9.74 11.42-7.25 0 .02-5.64-6.91-13.65-10.62zm-10.47-2.32c.15-8.48-1.4-16.46-1.4-16.46s-.14-1.3-.86-.24-1.2 3.93-1.2 3.93c-7.44-.43-12.76.34-12.76.34-.82-2.73-2.21-3.93-2.88-3.65-.67.29-.72 3.31-.72 3.31l-.33 14.1c6.65-.9 13.42-1.36 20.15-1.33z"/><path d="M45.15 44.76c.13-1.06.2-2.47.24-4.04 0 0-2.16.58-8.11 2.16-5.95 1.58-7.77 1.78-7.77 1.78l1.1 4.99c.02.11.05.22.07.32 1.49.99 3.08 1.8 4.75 2.54 4.35-2.16 6.84-4.12 6.84-4.12v.06c1.12-1.05 2.12-2.31 2.88-3.69z" fill="#e55645"/><path d="M31.86 13.99c-.05-.09 1.02.68 1.41.92s.61.42.61.59-.26.34-.62.34-.91-.12-.96-.26c0 0 .6-.02.94-.02h.29c-.02-.01-1.41-1.04-1.67-1.57zm7.47.12s-1.05 1.27-1.09 1.33-.17.34.19.29 1.11-.22 1.22-.28.07-.2-.12-.18c-.2.02-.68.05-.98.11l.84-1.26s.02-.12-.06-.01zm-3.13 6.08s.81-.35 1.09-1.01.04-.91-.44-.98c-.48-.07-1.34-.03-1.74.34-.4.37-.34.73-.05.95.28.24.84.61 1.14.7z"/><path class="st1" d="M35.79 21.44s-.18.37-.46.59c-.24.19-.57.36-1.02.39-.64.03-1.06-.17-1.45-.45-.2-.14-.4-.25-.53-.44-.16-.18-.36-.25-.36-.25s.75 4.1 2.56 4.74c1.82.65 2.14-.75 2.2-1.13.05-.33 0-2.08-.82-3.22 0-.3-.02-.09-.12-.23z"/><path d="M34.15 22.58h-.02c-1.29-.01-2.29-1.36-2.33-1.42-.05-.06-.03-.15.03-.2.06-.05.15-.03.2.03.01.01.96 1.29 2.1 1.3h.01c.58 0 1.13-.33 1.63-.99l.14-.19.1.21c0 .01.37.76.99.79.5.03 1.05-.41 1.62-1.28.04-.07.13-.09.2-.04.07.04.09.13.04.2-.63.97-1.26 1.45-1.88 1.41-.56-.04-.94-.49-1.12-.76-.5.62-1.08.94-1.71.94z"/><path class="st3" d="M41.05 29.22l-3.12 1.3 1.14-5.61-7.47 9.72 3.12-1.3-1.14 5.61 7.47-9.72zm-7.35 3.8l4.11-5.39-.8 4 1.96-.82-4.11 5.39.8-4-1.96.82z"/><path class="st1" d="M45.68 18.92s-2.54 2.24-5.06 5.19c-2.52 2.95-5.29 4.87-5.29 4.87-.22-.53-1.62-1.51-1.62-1.51s-3.13-2.14-5.18-3.82c-1.18-.97-2.35-2.17-3.12-3.01-.29-.02-1.07-.06-2.01-.11 4.69 6.97 11.97 8.8 11.97 8.8.86-.14 3.27-1.86 5.07-3.26s4.75-4.52 5.94-5.89c.6-.69.94-1.42 1.14-1.97-1.12.38-1.84.71-1.84.71zM25.81 25.7s-3.79-1.44-5.18-1.82c-1.39-.38-2.26-.67-4.03.62-1.78 1.3-1.73 3.84-1.73 3.84s.43.96.48 1.44c.05.48-1.2.43-2.02.43s-.91-1.44-.29-3.12c.62-1.68 1.92-3.69 1.92-3.69C9.55 26.23 0 32.75 0 32.75s2.93-.29 8.16.24 4.94 4.65 4.94 4.65 3.5-.96 5.61-1.1c2.11-.14 2.26 2.11 2.26 2.11l.53 3.84s.48-.62 2.64-2.35c1.85-1.48 3.87-1.36 4.37-1.3l-2.7-13.14z"/><path class="st3" d="M89.56 37.12c-.66-.85-.99-2.08-.99-3.69v-5.34c0-1.64.33-2.89.98-3.73.66-.84 1.78-1.26 3.38-1.26 1.52 0 2.6.37 3.23 1.11.63.74.95 1.81.95 3.19v1.25h-2.94v-1.38c0-.44-.02-.8-.06-1.07-.04-.27-.15-.49-.33-.67-.18-.18-.45-.27-.82-.27-.55 0-.91.18-1.07.53-.16.36-.24.88-.24 1.56v6.77c0 .7.09 1.22.28 1.56.18.34.53.52 1.03.52.52 0 .85-.17.99-.52.15-.35.22-.87.22-1.56v-1.45h2.94v1.23c0 1.42-.31 2.52-.94 3.3-.63.78-1.71 1.17-3.24 1.17-1.59.03-2.71-.4-3.37-1.25zm11.56-13.83h3.37l2.87 14.91h-2.8l-.55-3.28h-2.36l-.57 3.28h-2.85l2.89-14.91zm2.59 9.75l-.9-6-.88 6h1.78zm5.8-7.5h-2.3v-2.25h7.62v2.25h-2.26V38.2h-3.05V25.54z"/><path d="M120.81 23.29h5.78v1.55h-3.7v4.93h3v1.47h-3v5.47h3.74v1.49h-5.82V23.29zm7.49 0h1.42l4.23 9.9v-9.9h1.73V38.2h-1.33l-4.29-10.18V38.2h-1.77V23.29zm9.71 0h5.78v1.55h-3.7v4.93h3v1.47h-3v5.47h3.74v1.49h-5.82V23.29zm7.5 0h3c1.51 0 2.62.31 3.32.93.71.62 1.06 1.63 1.06 3.03 0 1.91-.61 3.07-1.84 3.48l2.12 7.47h-2.01l-1.95-6.99h-1.62v6.99h-2.08V23.29zm2.87 6.42c.9 0 1.54-.18 1.92-.53.39-.36.58-1 .58-1.93 0-.61-.07-1.09-.2-1.44a1.33 1.33 0 0 0-.72-.77c-.34-.17-.83-.25-1.45-.25h-.92v4.93h.79zm7.3 7.39c-.6-.85-.9-2.12-.9-3.8v-4.99c0-1.15.12-2.1.36-2.84.24-.74.65-1.31 1.23-1.71.58-.4 1.38-.6 2.4-.6 1.37 0 2.36.35 2.97 1.05.61.7.91 1.8.91 3.29v.55h-1.95v-.45c0-.71-.04-1.26-.13-1.65-.09-.39-.27-.68-.54-.87-.28-.2-.68-.29-1.22-.29-.58 0-1.01.13-1.29.4-.28.26-.46.62-.54 1.06-.08.44-.12 1.03-.12 1.77v5.52c0 1.14.14 1.96.41 2.46.28.5.81.75 1.59.75.77 0 1.3-.27 1.59-.81.29-.54.43-1.4.43-2.59v-1.03H159v-1.47h3.77v7.38h-1.31l-.2-1.71c-.47 1.26-1.35 1.9-2.65 1.9-1.35-.04-2.33-.46-2.93-1.32zm11.39-4.17l-3.22-9.64h1.93l2.28 7.2 2.25-7.2h1.95l-3.2 9.64v5.26h-1.99v-5.26z" fill="#444"/></svg>