<?xml version="1.0" encoding="utf-8"?>
<!-- Generator: Adobe Illustrator 23.0.0, SVG Export Plug-In . SVG Version: 6.00 Build 0)  -->
<svg version="1.1" id="Layer_1" xmlns="http://www.w3.org/2000/svg" xmlns:xlink="http://www.w3.org/1999/xlink" x="0px" y="0px"
	 viewBox="0 0 425.2 425.2" style="enable-background:new 0 0 425.2 425.2;" xml:space="preserve">
<g>
	<path d="M130.28,0c0.58,0,1.16,0,1.74,0c3.11,1.54,4.97,4.13,6.57,6.99c2.68,4.79,4.59,9.88,6.02,15.1
		c0.97,3.55,2.99,5.25,6.77,5.87c10.69,1.77,18.47,7.58,23.91,16.41c3.39,5.51,6.03,11.35,8.43,17.29
		c6.53,16.14,11.51,32.79,17.6,49.08c2.91,7.78,3.02,7.67,11.74,7.76c10.36,0.1,9.63-1.55,9.79,9.41c0.05,3.47-1.1,5.22-4.94,5.05
		c-1.19-0.05-2.98-0.57-3.43,0.94c-0.37,1.26,1.09,2.14,1.97,3.03c5.45,5.51,12.28,8.72,19.83,10.66
		c8.68,2.24,17.52,3.99,26.02,6.72c21.68,6.98,41.77,16.71,57.39,33.2c9.53,10.06,16.09,21.99,21.66,34.37
		c16.98,37.71,24.93,77.62,31.26,117.91c2.97,18.87,5.05,37.85,6.67,56.86c0.81,9.5,1.85,19,1.71,28.56c-50.78,0-101.56,0-152.35,0
		c-0.54-2.02,0.34-3.83,1.06-5.62c3.1-7.69,9.46-11.69,17.49-13.47c3.17-0.7,3.58-1.61,1.61-4.01c-3.35-4.07-5.55-8.75-7.27-13.61
		c-7.47-21.07-10.35-43.06-13.95-64.87c-2.75-16.65-6.85-32.77-15.9-47.46c-6.69-10.86-15.07-20.28-25.58-27.93
		c-3.8-2.77-3.92-2.77-4.57,1.93c-0.44,3.14-0.55,6.33-0.75,9.5c-1.32,20.72-1.2,41.44,0.79,62.12c1.55,16.13,2.17,32.23,0.7,48.41
		c-1.69,18.64-5.27,36.94-10.22,55.02c-20.31,0-40.63,0-60.94,0c1.48-9.62,9.62-17.65,19.39-19.47c5.87-1.09,11.56-0.36,17.23,0.89
		c2.73,0.6,3.88,0.13,4.11-2.85c1.81-23.31,0.57-46.48-4.39-69.34c-5.74-26.41-11.15-52.88-14.01-79.71
		c-1.19-11.15-4.73-21.16-10.4-30.8c-5.46-9.29-10.21-18.95-15.57-28.3c-4.25-7.4-5.05-14.89-1.9-22.75
		c1.24-3.1,2.42-6.24,3.94-9.21c4.37-8.58,9.01-17.04,13.32-25.65c2.23-4.45,1.77-4.93-3.24-5.03c-7.46-0.15-7.46-0.15-7.58-7.2
		c-0.02-0.97,0.03-1.94,0-2.91c-0.06-3.02,1.17-4.69,4.64-4.44c2.31,0.16,4.64,0,6.96,0.04c3.16,0.06,4.07-1.26,3.3-4.19
		c-2.65-9.99-12.71-18.19-23.48-19.44c-10.24-1.19-20.24,0.19-30.23,1.89c-2.97,0.5-4.6-0.11-5.72-2.8
		c-1.82-4.37-3.87-8.65-5.89-12.94c-0.84-1.79-0.91-3.36,0.42-5.02c14.53-18,30.36-34.63,51.98-45.17c2.27-1.11,3.53-2.52,4.06-4.93
		c1.37-6.23,2.97-12.41,5.79-18.23C125.35,4.57,127.06,1.71,130.28,0z"/>
</g>
</svg>
