<?xml version="1.0" encoding="utf-8"?>
<!-- Generator: Adobe Illustrator 23.0.0, SVG Export Plug-In . SVG Version: 6.00 Build 0)  -->
<svg version="1.1" id="Layer_1" xmlns="http://www.w3.org/2000/svg" xmlns:xlink="http://www.w3.org/1999/xlink" x="0px" y="0px"
	 viewBox="0 0 367.6 512" style="enable-background:new 0 0 367.6 512;" xml:space="preserve">
<g>
	<path d="M79.59,0c0.67,0,1.33,0,2,0c3.57,1.86,5.71,4.98,7.55,8.42c3.08,5.77,5.27,11.9,6.91,18.18c1.12,4.27,3.43,6.32,7.78,7.07
		c12.28,2.13,21.22,9.13,27.47,19.76c3.9,6.63,6.92,13.66,9.69,20.82c7.5,19.44,13.23,39.48,20.22,59.09
		c3.34,9.36,3.47,9.24,13.48,9.34c11.9,0.11,11.06-1.86,11.24,11.33c0.06,4.18-1.26,6.29-5.67,6.08c-1.37-0.07-3.42-0.69-3.94,1.14
		c-0.43,1.52,1.26,2.58,2.27,3.64c6.26,6.63,14.11,10.5,22.78,12.84c9.97,2.69,20.13,4.8,29.89,8.09
		c24.9,8.4,47.98,20.13,65.92,39.98c10.95,12.12,18.48,26.48,24.88,41.39c19.5,45.41,28.64,93.47,35.91,141.98
		c3.41,22.73,5.8,45.58,7.66,68.47c0.93,11.43,2.13,22.88,1.96,34.39c-58.33,0-116.67,0-175,0c-0.62-2.44,0.39-4.61,1.22-6.76
		c3.56-9.26,10.87-14.08,20.1-16.22c3.65-0.84,4.11-1.94,1.84-4.83c-3.85-4.9-6.37-10.54-8.35-16.39
		c-8.58-25.37-11.89-51.84-16.02-78.11c-3.16-20.05-7.87-39.46-18.26-57.15c-7.68-13.08-17.31-24.42-29.38-33.63
		c-4.36-3.33-4.5-3.33-5.25,2.32c-0.5,3.78-0.63,7.62-0.86,11.44c-1.52,24.96-1.38,49.9,0.91,74.8c1.78,19.42,2.49,38.81,0.8,58.29
		c-1.94,22.45-6.06,44.48-11.74,66.25c-23.33,0-46.67,0-70,0c1.7-11.58,11.05-21.25,22.27-23.44c6.74-1.32,13.27-0.43,19.79,1.07
		c3.14,0.72,4.45,0.16,4.72-3.43c2.08-28.07,0.66-55.97-5.05-83.5c-6.59-31.8-12.8-63.67-16.1-95.98
		c-1.37-13.42-5.43-25.47-11.94-37.09c-6.27-11.18-11.73-22.82-17.88-34.07c-4.88-8.92-5.81-17.93-2.18-27.39
		c1.43-3.73,2.78-7.51,4.53-11.1c5.02-10.34,10.35-20.52,15.3-30.89c2.56-5.36,2.03-5.93-3.73-6.06c-8.56-0.18-8.57-0.18-8.7-8.67
		c-0.02-1.17,0.03-2.33,0.01-3.5c-0.07-3.63,1.34-5.64,5.33-5.35c2.65,0.2,5.33,0,8,0.05c3.63,0.07,4.68-1.52,3.79-5.04
		c-3.04-12.04-14.6-21.9-26.97-23.41c-11.76-1.44-23.25,0.23-34.72,2.28c-3.41,0.61-5.28-0.14-6.57-3.38
		c-2.09-5.26-4.45-10.42-6.77-15.58c-0.97-2.16-1.05-4.05,0.49-6.04c16.69-21.67,34.87-41.7,59.71-54.4
		c2.61-1.33,4.05-3.03,4.66-5.94c1.58-7.5,3.42-14.94,6.66-21.95C73.92,5.5,75.88,2.06,79.59,0z"/>
</g>
</svg>
