<?xml version="1.0" encoding="utf-8"?>
<!-- Generator: Adobe Illustrator 23.0.0, SVG Export Plug-In . SVG Version: 6.00 Build 0)  -->
<svg version="1.1" id="Layer_1" xmlns="http://www.w3.org/2000/svg" xmlns:xlink="http://www.w3.org/1999/xlink" x="0px" y="0px"
	 viewBox="0 0 10 19" style="enable-background:new 0 0 10 19;" xml:space="preserve">
<g>
	<path d="M7.05,19H2.01v-8.84H0V5.8h1.94C1.8,3.82,2.17,2.38,3.07,1.39C3.84,0.55,4.98,0.08,6.46,0L10,0v4.21H7.22
		C7.1,4.43,7.04,4.96,7.04,5.8h2.94v4.37H7.05V19z M3.12,17.97h2.82V9.14h2.93V6.83H5.94l-0.01-0.5c-0.03-1.4,0-2.59,0.74-3.05
		l0.14-0.09h2.07V1.03h-2.4c-1.15,0.06-2.01,0.4-2.58,1.02C3.15,2.89,2.87,4.31,3.1,6.26l0.07,0.57H1.11v2.31h2.01V17.97z"/>
</g>
</svg>
