<?xml version="1.0" encoding="utf-8"?>
<!-- Generator: Adobe Illustrator 23.0.0, SVG Export Plug-In . SVG Version: 6.00 Build 0)  -->
<svg version="1.1" id="Layer_1" xmlns="http://www.w3.org/2000/svg" xmlns:xlink="http://www.w3.org/1999/xlink" x="0px" y="0px"
	 viewBox="0 0 26.94 34.09" style="enable-background:new 0 0 26.94 34.09;" xml:space="preserve">
<path d="M13.62,0.02L13.47,0L0,1.41v24.66l13.47,8.02L26.9,26.1l0.04-0.02V1.41L13.62,0.02z M25.02,12.13L13.49,5.33l0-0.1
	l-0.09,0.05l-0.09-0.06v0.11L1.92,12.12V3.15l11.55-1.21l11.55,1.21L25.02,12.13L25.02,12.13z M13.41,6.79l11.52,6.71l-4.48,2.64
	l-7.09-4.22l-0.01,1.42l5.9,3.51l-0.86,0.51l-5.03-2.99l-0.01,1.41l3.83,2.27l-0.78,0.52l-3.03-1.79l-0.01,1.41l1.85,1.09l-1.8,1.08
	L2.03,13.62L13.41,6.79z M1.92,15.13l11.41,6.79l0.02,1.04l-7.94-4.73L5.4,19.65l7.98,4.79l0.02,1.08l-7.97-4.74L5.41,22.2
	l8.02,4.82l0.05,0.02l8.14-4.87l-0.01-5.18l3.42-2.04v10.02l-11.55,6.87L1.92,24.98V15.13z"/>
</svg>
