<?xml version="1.0" encoding="utf-8"?>
<!-- Generator: Adobe Illustrator 23.0.0, SVG Export Plug-In . SVG Version: 6.00 Build 0)  -->
<svg version="1.1" id="Layer_1" xmlns="http://www.w3.org/2000/svg" xmlns:xlink="http://www.w3.org/1999/xlink" x="0px" y="0px"
	 viewBox="0 0 16 16" style="enable-background:new 0 0 16 16;" xml:space="preserve">
<style type="text/css">
	.st0{fill:#231F20;}
</style>
<path class="st0" d="M11.83,1.04c1.73,0,3.13,1.41,3.13,3.13v7.66c0,1.73-1.4,3.13-3.13,3.13H4.17c-1.73,0-3.13-1.41-3.13-3.13V4.18
	c0-1.73,1.4-3.13,3.13-3.13L11.83,1.04 M11.83,0H4.17C1.88,0,0,1.88,0,4.18v7.66c0,2.3,1.88,4.18,4.17,4.18h7.65
	c2.29,0,4.17-1.88,4.17-4.18V4.18C16,1.88,14.12,0,11.83,0L11.83,0z"/>
<path class="st0" d="M8,4.93c1.7,0,3.08,1.38,3.08,3.08c0,1.7-1.38,3.08-3.08,3.08c-1.7,0-3.08-1.38-3.08-3.08
	C4.92,6.31,6.3,4.93,8,4.93 M8,3.88c-2.28,0-4.13,1.85-4.13,4.13S5.72,12.13,8,12.13s4.12-1.85,4.12-4.13S10.28,3.88,8,3.88L8,3.88z
	"/>
<circle class="st0" cx="12.27" cy="3.74" r="0.93"/>
</svg>
