<?xml version="1.0" encoding="utf-8"?>
<!-- Generator: Adobe Illustrator 23.0.0, SVG Export Plug-In . SVG Version: 6.00 Build 0)  -->
<svg version="1.1" id="Layer_1" xmlns="http://www.w3.org/2000/svg" xmlns:xlink="http://www.w3.org/1999/xlink" x="0px" y="0px"
	 viewBox="0 0 454.05 188.36" style="enable-background:new 0 0 454.05 188.36;" xml:space="preserve">
<g>
	<path d="M417.01,19.56c4.08-6.33,9.19-11.44,15.39-15.57c3.36-2.24,5.51-2.24,7.3,1.86c2.86,6.53,5.11,13.06,3.06,20.28
		c-0.74,2.61-0.2,4.85,1.42,7.03c1.89,2.53,3.57,5.22,5.32,7.86c4.28,6.45,6.02,13.25,3.13,20.83c-1.27,3.31-1.4,6.75-0.69,10.32
		c0.65,3.26,0.53,6.63,0,9.95c-0.87,5.43-3.68,9.24-9.15,10.68c-4.31,1.13-8.05,3.1-10.87,6.67c-0.73,0.93-1.66,1.64-2.9,1.81
		c-3.99,0.54-14.15-8.47-14.14-12.55c0-0.67,0.04-1.33,0.05-2c0.22-12.05-0.5-13.22-11.55-18.05c-2.33-1.02-4.54-2.16-6.13-4.17
		c-2.19-2.76-4.86-2.51-7.65-1.33c-2.83,1.19-4.69,3.03-4.32,6.48c0.88,8.12,1.22,16.27,1.18,24.44c0,0.95,0.26,2.06,0.79,2.83
		c10.49,15.11,14.44,32.88,19.67,49.99c3.99,13.06,11.5,20.15,25.01,21.11c2.15,0.15,4.28,0.65,6.41,1.05
		c6.05,1.12,9.67,4.93,11.45,10.62c2.22,7.07,1.11,8.58-6.25,8.63c-7.33,0.05-14.66-0.04-21.99,0.06c-2.96,0.04-5.49-0.54-7.71-2.73
		c-3.26-3.22-7.54-4.86-11.64-6.68c-4.5-2-8.69-4.51-11.37-8.68c-3.75-5.83-8.85-10.36-13.63-15.22
		c-9.57-9.74-19.49-19.15-28.54-29.4c-6.52-7.38-10.79-15.58-10.7-25.62c0.03-3.15-0.79-4.47-4.03-2.88c-1.03,0.51-2.21,0.98-3.33,1
		c-9.54,0.15-14.2,5.85-17.58,14.06c-2.96,7.21-7.2,13.89-10.77,20.86c-2.38,4.64-3.92,9.54-3.91,14.83
		c0.01,7.91,1.87,10.76,9.33,13.42c4.62,1.65,9.07,3.38,11.6,8.02c2.86,5.24,2.02,6.86-3.85,6.92c-7.66,0.08-15.33-0.04-22.99,0.06
		c-2.98,0.04-4.99-0.99-6.44-3.7c-1.89-3.52-4.16-6.83-6.25-10.23c-3.48-5.65-4.89-11.42-2.53-18.06
		c2.05-5.77,1.12-11.96,0.27-17.84c-1.27-8.76,0.11-16.58,5.84-23.43c1.87-2.23,2.11-3.46-1.34-4.11
		c-14.01-2.63-27.25-7.57-40.06-13.72c-0.15-0.07-0.3-0.14-0.46-0.2c-10.82-4.15-12.9-3.23-15.94,7.67
		c-2.64,9.46-5.39,18.91-7.44,28.5c-2.28,10.6,0.38,20.84,3.79,30.86c1.32,3.89,5.28,3.72,8.32,4.61
		c6.65,1.95,12.38,4.76,15.28,11.64c2.26,5.35,1.96,6.07-3.69,6.12c-5.83,0.05-11.68-0.29-17.49,0.1
		c-5.52,0.37-9.64-1.74-14.15-4.75c-16.29-10.88-20.92-27.13-22.23-45.22c-0.81-11.23-6.73-20-13.92-28.12
		c-1.4-1.58-2.67-2.23-4.69-0.94c-7.1,4.5-15.09,6.99-22.87,9.93c-16.37,6.2-30.57,15.46-41.31,29.54c-3.91,5.12-6.6,10.8-7.55,17.2
		c-0.9,6.05,0.8,8.6,6.64,10.32c6.47,1.91,9.03,5.04,9.77,11.57c0.31,2.76-0.69,4.19-3.47,4.19c-9.16,0-18.33-0.03-27.49-0.06
		c-2.03-0.01-3.33-1.2-4.54-2.69c-4.38-5.39-6.43-11.64-6.61-18.48c-0.3-11.7,1.07-23.27,3.13-34.76
		c1.27-7.09,4.62-12.91,11.36-16.09c20.02-9.44,30.48-27.13,39.91-45.77c1.9-3.76,0.22-4.33-3.04-4.04
		c-9.79,0.88-18.19,5.22-26.02,10.73c-10.11,7.1-19.21,15.43-28.23,23.85c-9.87,9.22-21.08,15.63-34.92,16.6
		C10.66,109.19-1.09,95.69,0.08,73.24c0.4-7.65,2.97-14.73,8.22-20.5c4.05-4.45,8.97-6.88,15.2-5.08c5.17,1.5,6.51,4.1,4.37,8.94
		c-0.87,1.97-2.21,3.72-3.25,5.61c-1.19,2.19-2.54,4.33-3.37,6.66c-3.56,10.02,1.24,17.16,11.84,18.07
		c11.25,0.96,20.39-3.73,28.87-10.38c10.3-8.07,19.27-17.58,27.28-27.75c12.63-16.06,28.95-24.63,48.81-27.21
		c7.69-1,14.62-4.44,21.99-6.51c14.05-3.94,28.27-6.3,42.88-5.94c6.88,0.17,13.25-0.93,19.82-3.61c16.51-6.73,33.78-6.7,51.1-3.22
		c13.55,2.73,26.94,6.12,40.38,9.3c7.61,1.8,15.94,1.16,23.7-0.53c15-3.26,30-6.31,45.38-6.59c10.06-0.18,19.91,1.46,29.18,5.71
		C418.95,13.17,418.95,13.16,417.01,19.56z"/>
</g>
</svg>
