<?xml version="1.0" encoding="utf-8"?>
<!-- Generator: Adobe Illustrator 23.0.0, SVG Export Plug-In . SVG Version: 6.00 Build 0)  -->
<svg version="1.1" id="Layer_1" xmlns="http://www.w3.org/2000/svg" xmlns:xlink="http://www.w3.org/1999/xlink" x="0px" y="0px"
	 viewBox="0 0 425.2 425.2" style="enable-background:new 0 0 425.2 425.2;" xml:space="preserve">
<g>
	<path d="M392.18,143.83c3.83-6.13,8.64-11.09,14.47-15.09c3.16-2.17,5.18-2.17,6.86,1.8c2.69,6.33,4.8,12.66,2.88,19.65
		c-0.7,2.53-0.19,4.7,1.34,6.81c1.78,2.45,3.36,5.06,5.01,7.62c4.03,6.25,5.66,12.84,2.94,20.18c-1.19,3.21-1.32,6.54-0.65,10
		c0.61,3.16,0.5,6.43,0,9.64c-0.82,5.27-3.46,8.95-8.61,10.35c-4.05,1.1-7.58,3.01-10.22,6.46c-0.69,0.9-1.56,1.59-2.72,1.75
		c-3.76,0.52-13.31-8.21-13.3-12.16c0-0.65,0.04-1.29,0.05-1.94c0.21-11.68-0.47-12.81-10.87-17.49c-2.19-0.98-4.27-2.1-5.77-4.04
		c-2.06-2.67-4.57-2.43-7.2-1.29c-2.66,1.15-4.41,2.93-4.06,6.28c0.83,7.87,1.15,15.76,1.11,23.68c0,0.92,0.24,2,0.74,2.74
		c9.86,14.64,13.58,31.86,18.5,48.44c3.75,12.65,10.82,19.53,23.52,20.45c2.02,0.15,4.02,0.63,6.02,1.02
		c5.69,1.09,9.09,4.78,10.76,10.29c2.08,6.86,1.05,8.31-5.88,8.36c-6.89,0.05-13.79-0.04-20.68,0.06c-2.79,0.04-5.16-0.52-7.25-2.65
		c-3.07-3.12-7.09-4.71-10.95-6.47c-4.24-1.93-8.17-4.37-10.69-8.41c-3.53-5.65-8.33-10.03-12.82-14.74
		c-9-9.44-18.33-18.55-26.84-28.49c-6.13-7.15-10.15-15.1-10.07-24.82c0.02-3.05-0.74-4.33-3.79-2.79
		c-0.97,0.49-2.08,0.95-3.14,0.97c-8.97,0.15-13.35,5.66-16.53,13.62c-2.79,6.99-6.77,13.46-10.12,20.21
		c-2.24,4.5-3.68,9.24-3.68,14.37c0.01,7.67,1.76,10.42,8.77,13c4.35,1.6,8.53,3.28,10.91,7.77c2.69,5.08,1.9,6.65-3.62,6.7
		c-7.21,0.07-14.42-0.04-21.62,0.06c-2.8,0.04-4.69-0.96-6.06-3.59c-1.78-3.41-3.91-6.62-5.88-9.91c-3.27-5.47-4.6-11.07-2.38-17.5
		c1.92-5.6,1.06-11.59,0.25-17.29c-1.19-8.49,0.11-16.07,5.5-22.7c1.76-2.16,1.99-3.35-1.26-3.98
		c-13.17-2.55-25.62-7.34-37.68-13.29c-0.14-0.07-0.28-0.14-0.43-0.19c-10.17-4.03-12.13-3.13-14.99,7.44
		c-2.48,9.17-5.06,18.33-7,27.62c-2.14,10.27,0.36,20.2,3.56,29.9c1.24,3.77,4.97,3.61,7.82,4.47c6.25,1.89,11.64,4.62,14.37,11.28
		c2.12,5.18,1.85,5.88-3.47,5.93c-5.48,0.05-10.99-0.28-16.45,0.1c-5.19,0.36-9.07-1.69-13.31-4.61
		c-15.32-10.55-19.68-26.29-20.91-43.82c-0.76-10.88-6.33-19.38-13.09-27.25c-1.31-1.53-2.51-2.16-4.41-0.91
		c-6.67,4.36-14.19,6.77-21.51,9.63c-15.4,6.01-28.75,14.98-38.85,28.62c-3.67,4.96-6.21,10.47-7.1,16.67
		c-0.85,5.86,0.75,8.33,6.24,10c6.08,1.85,8.49,4.88,9.18,11.21c0.29,2.68-0.65,4.06-3.26,4.06c-8.62,0-17.24-0.03-25.85-0.05
		c-1.91-0.01-3.13-1.17-4.27-2.61c-4.12-5.23-6.05-11.28-6.21-17.9c-0.29-11.34,1.01-22.55,2.95-33.68
		c1.2-6.87,4.34-12.51,10.68-15.59c18.83-9.15,28.66-26.29,37.54-44.36c1.79-3.64,0.21-4.2-2.86-3.91
		c-9.21,0.85-17.1,5.06-24.48,10.4c-9.51,6.88-18.07,14.95-26.55,23.11c-9.28,8.94-19.82,15.14-32.84,16.09
		c-21.98,1.59-33.03-11.49-31.93-33.25c0.37-7.41,2.79-14.27,7.73-19.86c3.81-4.31,8.44-6.67,14.29-4.92
		c4.87,1.45,6.12,3.98,4.11,8.67c-0.82,1.9-2.08,3.6-3.05,5.44c-1.12,2.12-2.39,4.2-3.17,6.45c-3.35,9.71,1.17,16.63,11.14,17.51
		c10.58,0.93,19.17-3.62,27.15-10.06c9.68-7.82,18.13-17.03,25.65-26.89c11.88-15.56,27.22-23.87,45.9-26.37
		c7.23-0.97,13.75-4.3,20.68-6.3c13.21-3.82,26.59-6.1,40.33-5.76c6.47,0.16,12.46-0.9,18.64-3.5c15.53-6.52,31.77-6.5,48.06-3.12
		c12.74,2.64,25.34,5.93,37.98,9.01c7.15,1.74,14.99,1.12,22.29-0.52c14.1-3.16,28.22-6.11,42.68-6.39
		c9.46-0.18,18.72,1.41,27.44,5.53C394.01,137.64,394.02,137.63,392.18,143.83z"/>
</g>
</svg>
